<?xml version="1.0" standalone="no"?><!DOCTYPE svg PUBLIC "-//W3C//DTD SVG 1.1//EN" "http://www.w3.org/Graphics/SVG/1.1/DTD/svg11.dtd"><svg t="1583897155290" class="icon" viewBox="0 0 1111 1024" version="1.1" xmlns="http://www.w3.org/2000/svg" p-id="2690" xmlns:xlink="http://www.w3.org/1999/xlink" width="216.9921875" height="200"><defs><style type="text/css"></style></defs><path d="M556.617143 250.148571l84.114286 46.811429-81.92 49.005714-87.04-49.005714z" fill="#A8C8E6" p-id="2691"></path><path d="M424.96 582.217143v96.548571l-87.04-48.274285v-98.742858z" fill="#61B6F2" p-id="2692"></path><path d="M687.542857 582.217143v96.548571l87.771429-48.274285v-98.742858z" fill="#FC830A" p-id="2693"></path><path d="M243.22417 320.832535a43.885714 65.828571 32.997 1 0-73.613817-47.799892 43.885714 65.828571 32.997 1 0 73.613817 47.799892Z" fill="#0C92F2" p-id="2694"></path><path d="M880.183819 307.780727a67.291429 36.571429 63 1 0 65.170763-33.206163 67.291429 36.571429 63 1 0-65.170763 33.206163Z" fill="#0C92F2" p-id="2695"></path><path d="M482.874982 892.507764a54.855497 74.603476 87 1 0 149.002469-7.808889 54.855497 74.603476 87 1 0-149.002469 7.808889Z" fill="#0C92F2" p-id="2696"></path><path d="M574.902857 149.211429l285.257143 158.72c-8.777143-5.12-8.777143-28.525714 0-32.914286l-268.434286 154.331428c-8.045714 4.388571-27.062857 5.12-35.108571 0.731429l-298.422857-153.6c9.508571 5.12 10.24 29.988571 0.731428 35.108571l283.062857-161.645714c7.314286-5.12 25.6-5.12 32.914286-0.731428z m-359.862857 85.577142c-51.2 29.257143-49.737143 92.16 2.925714 119.222858l298.422857 153.6c35.108571 18.285714 84.845714 16.822857 119.222858-2.925715l268.434285-154.331428c50.468571-29.257143 49.737143-91.428571-0.731428-119.954286l-285.257143-158.72c-34.377143-19.017143-85.577143-19.017143-119.222857 0.731429l-283.794286 162.377142z" fill="#0C92F2" p-id="2697"></path><path d="M240.64 332.8c-2.194286 5.12-6.582857 10.24-12.434286 13.897143-5.851429 3.657143-12.434286 5.12-18.285714 4.388571-3.657143 0-6.582857-1.462857-8.045714-2.194285l299.885714 171.885714c0.731429 0.731429 1.462857 1.462857 1.462857 2.925714 0.731429 2.194286 1.462857 3.657143 1.462857 2.925714v348.891429c0-2.194286 0.731429-5.12 2.194286-8.045714 2.194286-5.12 6.582857-10.24 12.434286-13.165715 5.851429-3.657143 12.434286-4.388571 18.285714-4.388571 3.657143 0 6.582857 1.462857 8.045714 2.194286l-295.497143-174.08s-0.731429-1.462857-2.194285-2.925715c-1.462857-2.194286-1.462857-3.657143-1.462857-3.657142l-4.388572-346.697143c0 1.462857 0 4.388571-1.462857 8.045714z m-81.92 339.382857c0.731429 31.451429 19.748571 65.097143 46.811429 81.188572l295.497142 174.08c43.154286 25.6 91.428571-2.194286 91.428572-51.931429V526.628571c0-32.182857-19.748571-65.828571-47.542857-81.92l-299.885715-171.885714c-43.154286-24.868571-91.428571 2.925714-90.697142 53.394286l4.388571 345.965714z" fill="#0C92F2" p-id="2698"></path><path d="M867.474286 272.091429l-299.885715 171.885714c-27.794286 16.091429-47.542857 49.737143-47.542857 81.92v348.891428c0 49.737143 48.274286 77.531429 91.428572 51.931429L906.971429 753.371429c27.062857-16.091429 46.811429-49.737143 46.811428-81.188572l4.388572-346.697143c0.731429-50.468571-47.542857-78.262857-90.697143-53.394285z m-1.462857 398.628571s-0.731429 1.462857-1.462858 3.657143c-1.462857 2.194286-2.194286 3.657143-2.194285 2.925714l-295.497143 174.08c2.194286-0.731429 4.388571-2.194286 8.045714-2.194286 5.851429-0.731429 12.434286 0.731429 18.285714 4.388572s10.24 8.045714 12.434286 13.165714c1.462857 3.657143 2.194286 5.851429 2.194286 8.045714v-348.891428l1.462857-2.925714c0.731429-1.462857 1.462857-2.194286 2.194286-2.925715l299.154285-171.885714c-2.194286 0.731429-4.388571 2.194286-8.045714 2.194286-5.851429 0.731429-12.434286-0.731429-18.285714-4.388572s-10.24-8.045714-12.434286-13.897143c-1.462857-3.657143-2.194286-5.851429-2.194286-8.045714l-3.657142 346.697143z" fill="#0C92F2" p-id="2699"></path></svg>